<svg width="27" height="27" viewBox="0 0 27 27" fill="none" xmlns="http://www.w3.org/2000/svg">
<path d="M11.9688 2.48611C13.6867 2.486 15.3699 2.96953 16.8258 3.88136C18.2817 4.7932 19.4515 6.0965 20.2012 7.64212C20.951 9.18773 21.2505 10.9132 21.0654 12.6211C20.8804 14.329 20.2182 15.9503 19.1548 17.2994L23.0857 21.2303C23.2818 21.4334 23.3903 21.7053 23.3878 21.9875C23.3854 22.2697 23.2722 22.5397 23.0726 22.7393C22.873 22.9388 22.6031 23.052 22.3208 23.0545C22.0386 23.0569 21.7667 22.9484 21.5637 22.7524L17.6327 18.8214C16.4869 19.7244 15.1416 20.3404 13.7093 20.6178C12.277 20.8952 10.7991 20.8261 9.39891 20.4162C7.99874 20.0063 6.71689 19.2674 5.66032 18.2614C4.60375 17.2553 3.80309 16.0112 3.32514 14.6327C2.84719 13.2543 2.70581 11.7815 2.91281 10.3373C3.1198 8.89315 3.66915 7.51941 4.51504 6.33071C5.36093 5.14201 6.47882 4.17284 7.77544 3.50405C9.07207 2.83526 10.5098 2.48624 11.9688 2.48611ZM11.9688 4.63889C10.1132 4.63889 8.33359 5.37602 7.02149 6.68813C5.70938 8.00023 4.97225 9.77983 4.97225 11.6354C4.97225 13.491 5.70938 15.2706 7.02149 16.5827C8.33359 17.8948 10.1132 18.6319 11.9688 18.6319C13.8244 18.6319 15.604 17.8948 16.9161 16.5827C18.2282 15.2706 18.9653 13.491 18.9653 11.6354C18.9653 9.77983 18.2282 8.00023 16.9161 6.68813C15.604 5.37602 13.8244 4.63889 11.9688 4.63889ZM11.9688 5.71528C13.5389 5.71528 15.0447 6.33901 16.1549 7.44925C17.2652 8.55949 17.8889 10.0653 17.8889 11.6354C17.8889 13.2055 17.2652 14.7113 16.1549 15.8216C15.0447 16.9318 13.5389 17.5556 11.9688 17.5556C10.3987 17.5556 8.89285 16.9318 7.78261 15.8216C6.67237 14.7113 6.04864 13.2055 6.04864 11.6354C6.04864 10.0653 6.67237 8.55949 7.78261 7.44925C8.89285 6.33901 10.3987 5.71528 11.9688 5.71528Z" fill="white"/>
</svg>
